<?xml version="1.0" encoding="UTF-8" standalone="no"?>
<!DOCTYPE svg PUBLIC "-//W3C//DTD SVG 1.1//EN" "http://www.w3.org/Graphics/SVG/1.1/DTD/svg11.dtd">
<svg width="100%" height="100%" viewBox="0 0 1350 1499" version="1.1" xmlns="http://www.w3.org/2000/svg" xmlns:xlink="http://www.w3.org/1999/xlink" xml:space="preserve" xmlns:serif="http://www.serif.com/" style="fill-rule:evenodd;clip-rule:evenodd;stroke-linecap:round;stroke-linejoin:round;stroke-miterlimit:1.5;">
    <g id="P">
        <path class="brand-p" id="P-Outer" serif:id="P Outer" d="M649.424,703.081l0,-689.052c-371.905,191.657 -629.729,-0 -629.729,-0c-86.702,1115.72 638.856,1471.65 638.856,1471.65c2.281,-50.196 2.281,-155.151 2.281,-155.151c-371.905,-248.698 -472.297,-625.167 -472.297,-625.167l460.889,-2.281Zm-485.987,-80.017c-43.351,-159.714 -79.857,-289.767 -59.322,-467.734c41.069,6.845 243.847,76.754 469.729,1.46c-0,132.335 0.287,466.274 0.287,466.274l-410.694,0Z" style="fill:currentColor;stroke:currentColor;stroke-width:25px;"/>
    </g>
    <g id="D">
        <path class="brand-d" id="D-Outer" serif:id="D Outer" d="M692.775,1485.43l-1.46,-1472.11c168.841,73.013 320.706,147.394 642.416,-0.821c59.322,1122.65 -640.956,1472.93 -640.956,1472.93Zm77.576,-1348.35c-0,-0 177.967,88.984 483.705,-2.282c-29.661,869.301 -483.705,1149.94 -483.705,1149.94l-0,-1147.66Z" style="fill:currentColor;stroke:currentColor;stroke-width:25px;"/>
    </g>
</svg>